<svg width="1440" height="320" viewBox="0 0 1440 320" fill="none" xmlns="http://www.w3.org/2000/svg">
    <!-- Back Layer -->
    <path opacity="0.5" fill="white" d="M0,320 L0,120 
        C50,120 80,150 130,160 
        C180,170 210,190 260,210 
        C310,230 340,250 390,260 
        C440,270 470,280 520,280 
        C570,280 600,290 650,290 
        C700,290 730,290 780,290 
        C830,290 860,280 910,280 
        C960,280 990,270 1040,260 
        C1090,250 1120,230 1170,210 
        C1220,190 1250,170 1300,160 
        C1350,150 1380,120 1440,120 
        L1440,320 Z"/>

    <!-- Middle Layer -->
    <path opacity="0.7" fill="white" d="M0,320 L0,150 
        C60,150 90,180 150,200 
        C210,220 240,240 300,250 
        C360,260 390,270 450,275 
        C510,280 540,285 600,285 
        C660,285 690,285 750,285 
        C810,285 840,280 900,275 
        C960,270 990,260 1050,250 
        C1110,240 1140,220 1200,200 
        C1260,180 1290,150 1350,150 
        C1410,150 1440,150 1440,150 
        L1440,320 Z"/>

    <!-- Front Layer -->
    <path opacity="1" fill="white" d="M0,320 L0,180 
        C70,180 100,210 170,230 
        C240,250 270,270 340,280 
        C410,290 440,300 510,300 
        C580,300 610,305 680,305 
        C750,305 780,305 850,305 
        C920,305 950,300 1020,300 
        C1090,290 1120,280 1190,270 
        C1260,260 1290,230 1360,210 
        C1430,190 1440,180 1440,180 
        L1440,320 Z"/>
</svg>
